<svg xmlns="http://www.w3.org/2000/svg" width="21" height="24" viewBox="0 0 21 24"><g><g><path fill="#b6aea8" d="M19.604 18.152c.427.558.612 1.183.539 1.803-.073.616-.394 1.179-.932 1.634-.234.197-.471.385-.703.562-.34.265-.662.514-.95.793-.006.012-.016.016-.022.025-.83.732-1.813 1.023-2.925.882-.097-.012-.202-.032-.303-.047-1.639-.32-3.041-1.151-4.084-1.834-2.727-1.822-5.022-4.2-6.822-7.078C1.92 12.508.994 10.345.472 8.065.26 7.135.008 5.729.296 4.287a3.686 3.686 0 0 1 1.32-2.183L3.455.6c.006-.003.006-.003.011-.01.539-.414 1.137-.598 1.725-.523.587.074 1.116.4 1.526.939.278.337.543.694.796 1.043.125.178.26.357.391.529l1.154 1.53c.887 1.17.726 2.527-.41 3.445l-.454.373c-.401.332-.813.672-1.253.994.215.71.54 1.429 1.05 2.289 1.054 1.736 2.205 3.125 3.52 4.24.128.11.282.216.445.33.112.076.23.158.347.245l1.708-1.375c.546-.447 1.146-.634 1.738-.561.597.075 1.13.418 1.536.979zm-1.037.823L16.24 15.89l-.009-.008c-.13-.192-.352-.416-.65-.457-.304-.033-.588.136-.772.285l-1.85 1.496c-.091.075-.373.305-.772.251a1.002 1.002 0 0 1-.462-.186c-.018-.008-.036-.029-.054-.042a6.222 6.222 0 0 0-.445-.323 6.752 6.752 0 0 1-.553-.409c-1.426-1.207-2.671-2.707-3.8-4.575l-.004-.005c-.617-1.054-1.003-1.92-1.243-2.823-.003-.016-.007-.027-.01-.047-.053-.294-.08-.724.385-1.102.006-.01.016-.012.027-.018.465-.336.898-.687 1.354-1.062.155-.121.308-.25.464-.38.574-.46.631-.95.184-1.543L6.876 3.418c-.134-.186-.27-.365-.4-.544a21.782 21.782 0 0 0-.761-1c-.004-.011-.009-.014-.013-.021-.135-.179-.358-.401-.661-.44-.246-.029-.511.062-.775.263l-1.844 1.49a2.32 2.32 0 0 0-.84 1.397c-.18.904-.131 1.888.17 3.19.485 2.127 1.36 4.159 2.758 6.42 1.698 2.705 3.861 4.951 6.425 6.66.939.624 2.2 1.368 3.619 1.644.071.015.148.024.22.035.752.094 1.355-.085 1.905-.565.342-.326.699-.607 1.048-.877.232-.182.448-.35.66-.532-.005.003-.005 0 0 0 .554-.467.616-.99.18-1.563z"/></g></g></svg>