<svg xmlns="http://www.w3.org/2000/svg" width="19" height="23" viewBox="0 0 19 23"><g><g><path fill="#b6aea8" d="M5.902 10.933C4.19 8.865 4.476 5.321 4.506 4.983c.111-2.555 1.25-3.77 2.184-4.339.93-.566 1.9-.653 2.393-.653h.075c.899.024 1.704.25 2.393.676.925.567 2.046 1.779 2.157 4.317.031.337.316 3.88-1.397 5.95-.778.938-1.832 1.428-3.135 1.454h-.142c-1.304-.026-2.358-.516-3.131-1.455zm.894-.855c.557.677 1.308 1.016 2.287 1.023h.044c.983-.007 1.73-.346 2.29-1.023 1.415-1.702 1.104-4.942 1.1-4.974-.005-.01-.005-.026-.005-.04-.138-3.23-2.18-3.751-3.38-3.78h-.054c-.97 0-3.233.37-3.38 3.78 0 .01-.005.024-.005.04-.004.025-.307 3.28 1.103 4.974zm11.235 10.339a.625.625 0 0 1-.231.3c-.133.09-3.331 2.277-8.682 2.277-5.35 0-8.548-2.182-8.682-2.277a.6.6 0 0 1-.231-.3c-.236-.638-.231-1.91-.227-2.155v-.017c.004-.035.004-.073.004-.118.027-.942.085-3.143 2.016-3.855.012-.003.026-.01.044-.013 2.014-.55 3.674-1.785 3.691-1.8.272-.208.645-.137.837.159a.665.665 0 0 1-.147.89c-.076.054-1.846 1.378-4.061 1.988-1.036.398-1.152 1.584-1.183 2.668 0 .046-.004.081-.004.12-.01.426.022 1.09.093 1.47.725.44 3.567 1.957 7.846 1.957 4.296 0 7.12-1.513 7.841-1.95.071-.38.098-1.046.094-1.47-.005-.04-.005-.08-.005-.119-.031-1.088-.147-2.273-1.183-2.673-2.215-.607-3.985-1.928-4.061-1.987a.666.666 0 0 1-.147-.891.574.574 0 0 1 .837-.158c.017.014 1.685 1.25 3.691 1.799.013.007.031.01.045.015 1.93.707 1.988 2.908 2.014 3.853 0 .044.005.081.005.12v.017c.004.245.009 1.516-.214 2.15z"/></g></g></svg>